<svg xmlns="http://www.w3.org/2000/svg"  viewBox="0 0 512 512" width="67px" height="67px" fill-rule="evenodd" clip-rule="evenodd" image-rendering="optimizeQuality" shape-rendering="geometricPrecision" text-rendering="geometricPrecision"><path d="M82 2l349 0c44,0 79,36 79,79l0 349c0,44 -36,79 -79,79l-349 0c-44,0 -79,-36 -79,-79l0 -349c0,-44 36,-79 79,-79z"/><path fill="#fff" fill-rule="nonzero" d="M287 163c8,0 15,1 22,2l-4 26c-8,-2 -14,-2 -20,-2 -15,0 -27,6 -38,18 -10,12 -16,27 -16,45l0 98 -28 0 0 -182 23 0 3 34 1 0c7,-12 15,-21 24,-27 10,-6 20,-10 31,-10z"/></svg>