<svg xmlns="http://www.w3.org/2000/svg"  viewBox="0 0 120 120" width="120px" height="120px" baseProfile="basic"><g opacity=".35"><path d="M41.27,54.322l-25.075,9.64l25.075,9.64v13.105L0,70.364V57.56l41.27-16.342V54.322z"/><path d="M66.102,25.779h13.184l-25.455,76.441H40.726L66.102,25.779z"/><path d="M78.73,54.322V41.217L120,57.56v12.804L78.73,86.706V73.602l25.081-9.64L78.73,54.322z"/></g><path fill="#0075ff" d="M41.27,50.322l-25.075,9.64l25.075,9.64v13.105L0,66.364V53.56l41.27-16.342V50.322z"/><path fill="#0075ff" d="M66.102,21.779h13.184L53.831,98.221H40.726L66.102,21.779z"/><path fill="#0075ff" d="M78.73,50.322V37.217L120,53.56v12.804L78.73,82.706V69.602l25.081-9.64L78.73,50.322z"/></svg>