<?xml version="1.0"?><svg xmlns="http://www.w3.org/2000/svg"  viewBox="0 0 24 24" width="24px" height="24px">    <path d="M13.019,21.998c-3.729,0-7.313-2.093-9.032-5.673c-1.156-2.408-1.305-5.122-0.419-7.642c0.886-2.52,2.7-4.544,5.108-5.7 c1.543-0.741,3.261-1.073,4.976-0.96l0.537,1.796c-2.461,1.858-4.146,5.42-2.603,8.635l0,0c1.393,2.901,5.225,4.575,8.541,3.735 l1.065,1.542c-0.983,1.407-2.319,2.542-3.861,3.282C15.939,21.681,14.467,21.997,13.019,21.998z M10.958,4.265 c-0.487,0.128-0.961,0.302-1.417,0.521C7.614,5.71,6.163,7.33,5.455,9.346c-0.708,2.016-0.589,4.188,0.335,6.114 c1.909,3.978,6.7,5.661,10.675,3.751c0.473-0.227,0.921-0.5,1.338-0.814c-3.378-0.183-6.602-2.12-8.021-5.076l0,0 C8.257,10.143,9.101,6.745,10.958,4.265z"/></svg>