<svg xmlns="http://www.w3.org/2000/svg"  viewBox="0 0 48 48" width="48px" height="48px" fill-rule="evenodd" clip-rule="evenodd" baseProfile="basic"><path fill-rule="evenodd" d="M9.001,33.001L9,23.569l-8.399-3.652	c-0.4-0.173-0.6-0.545-0.6-0.917L0,17.001l48.001-0.001l-0.004,1.999c0,0.372-0.2,0.744-0.599,0.917l-8.397,3.652v9.432	c0,3.927-7.627,6-15,6C16.655,38.999,9.001,36.909,9.001,33.001z" clip-rule="evenodd"/><path fill="#fff" fill-rule="evenodd" d="M10.001,16.999v14	c0,2.76,6.272,5,14,5s14-2.24,14-5v-14H10.001z" clip-rule="evenodd"/><path fill-rule="evenodd" d="M13.767,35.477	c-2.487-0.888-4.765-2.336-4.765-4.477v-14c0-0.551,0.448-1,1-1h28c0.551,0,1,0.449,1,1v14c0,2.129-2.257,3.581-4.767,4.477	c-2.667,0.953-6.287,1.523-10.233,1.523C20.053,36.999,16.433,36.43,13.767,35.477z M33.563,33.593	c2.579-0.92,3.439-1.953,3.439-2.593v-13h-26v13c0,0.632,0.88,1.68,3.437,2.593c2.401,0.857,5.781,1.407,9.563,1.407	C27.781,34.999,31.161,34.45,33.563,33.593z" clip-rule="evenodd"/><path fill="#fff" fill-rule="evenodd" d="M24.001,6.999L47,16.998	L24,26.999l-22.999-10L24.001,6.999z" clip-rule="evenodd"/><path fill-rule="evenodd" d="M23.6,27.917l-22.999-10	c-0.799-0.347-0.799-1.487,0-1.833l23-10c0.255-0.111,0.544-0.111,0.799,0l22.999,9.999c0.799,0.347,0.799,1.487,0,1.833l-23,10.001	C24.144,28.027,23.855,28.027,23.6,27.917z M23.999,25.91l20.493-8.911L24.001,8.09L3.508,17.001L23.999,25.91z" clip-rule="evenodd"/><path fill-rule="evenodd" d="M4.001,36.994V18.999	c0-0.511,0.385-0.94,0.895-0.993l19-2c0.549-0.059,1.041,0.34,1.099,0.889c0.059,0.549-0.34,1.041-0.889,1.099L6.001,19.901v17.093	c0,0.552-0.449,1-1,1C4.449,37.994,4.001,37.546,4.001,36.994z" clip-rule="evenodd"/><path d="M2.001,37.999c0-1.656,1.341-3,2.997-3c1.659,0,3.003,1.344,3.003,3	s-3.003,6-3.003,6S2.001,39.655,2.001,37.999z"/><path fill-rule="evenodd" d="M5.003,31.999	c-1.104,0-2.001,0.896-2.001,2c0,1.104,0.897,2,2.001,2s2.001-0.896,2.001-2C7.004,32.895,6.107,31.999,5.003,31.999z" clip-rule="evenodd"/></svg>