<svg xmlns="http://www.w3.org/2000/svg"  viewBox="0 0 4000 4000" width="78px" height="78px"><circle cx="2000" cy="2000" r="680" fill="#fadb41"/><path fill="#fadb41" d="M2000,1047.95c-75.172,0-136-60.895-136-136V776c0-75.105,60.828-136,136-136s136,60.895,136,136 v135.95C2136,987.056,2075.172,1047.95,2000,1047.95z"/><path fill="#fadb41" d="M2769.383,1366.634c-34.797,0-69.594-13.281-96.156-39.844 c-53.125-53.108-53.125-139.221,0-192.329l96.156-96.14c53.125-53.092,139.188-53.108,192.312,0.017 c53.125,53.108,53.125,139.221,0,192.329l-96.156,96.14C2838.977,1353.353,2804.18,1366.634,2769.383,1366.634z"/><path fill="#fadb41" d="M3224,2136h-136c-75.172,0-136-60.895-136-136s60.828-136,136-136h136c75.172,0,136,60.895,136,136 S3299.172,2136,3224,2136z"/><path fill="#fadb41" d="M2865.539,3001.506c-34.797,0-69.594-13.265-96.156-39.827l-96.156-96.14 c-53.125-53.108-53.125-139.221,0-192.329c53.125-53.125,139.188-53.142,192.312-0.017l96.156,96.14 c53.125,53.108,53.125,139.221,0,192.329C2935.133,2988.225,2900.336,3001.506,2865.539,3001.506z"/><path fill="#fadb41" d="M2000,3360c-75.172,0-136-60.895-136-136v-135.95c0-75.105,60.828-136,136-136s136,60.895,136,136 V3224C2136,3299.105,2075.172,3360,2000,3360z"/><path fill="#fadb41" d="M1134.461,3001.506c-34.797,0-69.594-13.281-96.156-39.844 c-53.125-53.108-53.125-139.221,0-192.329l96.156-96.14c53.125-53.092,139.188-53.108,192.312,0.017 c53.125,53.108,53.125,139.221,0,192.329l-96.156,96.14C1204.055,2988.225,1169.258,3001.506,1134.461,3001.506z"/><path fill="#fadb41" d="M912,2136H776c-75.172,0-136-60.895-136-136s60.828-136,136-136h136c75.172,0,136,60.895,136,136 S987.172,2136,912,2136z"/><path fill="#fadb41" d="M1230.617,1366.634c-34.797,0-69.594-13.265-96.156-39.827l-96.156-96.14 c-53.125-53.108-53.125-139.221,0-192.329c53.125-53.125,139.188-53.142,192.312-0.017l96.156,96.14 c53.125,53.108,53.125,139.221,0,192.329C1300.211,1353.353,1265.414,1366.634,1230.617,1366.634z"/></svg>